<?xml version="1.0" standalone="no"?>
<!DOCTYPE svg PUBLIC "-//W3C//DTD SVG 20010904//EN"
 "http://www.w3.org/TR/2001/REC-SVG-20010904/DTD/svg10.dtd">
<svg version="1.0" xmlns="http://www.w3.org/2000/svg"
 width="512.000000pt" height="512.000000pt" viewBox="0 0 512.000000 512.000000"
 preserveAspectRatio="xMidYMid meet">
<metadata>
Created by potrace 1.11, written by Peter Selinger 2001-2013
</metadata>
<g transform="translate(0.000000,512.000000) scale(0.100000,-0.100000)"
fill="#000000" stroke="none">
<path d="M2474 4569 c-55 -19 -209 -98 -719 -366 -66 -34 -167 -86 -225 -115
-58 -29 -107 -55 -110 -58 -3 -3 -43 -26 -90 -50 -47 -24 -119 -61 -160 -83
-41 -22 -126 -66 -188 -99 -198 -103 -220 -120 -255 -196 -21 -46 -21 -54 -19
-672 3 -863 9 -1370 17 -1405 15 -63 60 -122 116 -153 46 -26 396 -211 569
-302 19 -10 69 -36 110 -58 73 -38 211 -110 415 -217 55 -29 157 -82 227 -119
349 -182 365 -189 448 -190 81 -1 100 7 319 126 31 17 92 50 136 73 96 51 224
119 413 221 34 19 90 49 125 68 228 123 313 169 321 177 6 5 17 9 25 9 8 0 22
6 30 14 9 7 59 36 111 63 304 162 322 175 361 260 18 39 19 75 23 575 9 1160
8 1462 -3 1505 -22 83 -70 117 -371 271 -395 201 -519 262 -526 261 -4 0 -10
3 -13 8 -9 13 -889 452 -920 459 -56 12 -119 10 -167 -7z"/>
</g>
</svg>
